<svg width="256" height="256" viewBox="0 0 256 256" fill="none" xmlns="http://www.w3.org/2000/svg">
  <rect width="256" height="256" rx="56" fill="#0066FF"/>
  <path d="M79 91.5C79 82.3873 86.3873 75 95.5 75H177V103H105C100.582 103 97 106.582 97 111V113C97 117.418 100.582 121 105 121H161C170.113 121 177.5 128.387 177.5 137.5V145.5C177.5 154.613 170.113 162 161 162H79V134H151.5C155.918 134 159.5 130.418 159.5 126V124C159.5 119.582 155.918 116 151.5 116H95.5C86.3873 116 79 108.613 79 99.5V91.5Z" fill="white"/>
  <path d="M79 181H177" stroke="white" stroke-width="18" stroke-linecap="round"/>
</svg>
